<svg width="74" height="32" viewBox="0 0 74 32" fill="none" xmlns="http://www.w3.org/2000/svg">
<path d="M60.6461 31.6458H73.579C73.6568 31.6456 73.7329 31.624 73.7992 31.5834C73.8654 31.5427 73.9191 31.4846 73.9544 31.4153C73.9897 31.3461 74.0052 31.2684 73.9992 31.1909C73.9932 31.1134 73.966 31.0391 73.9205 30.9761C72.7529 29.3627 71.5856 27.7496 70.4187 26.1368C70.3207 26.0019 70.1921 25.8919 70.0435 25.8161C69.895 25.7403 69.7305 25.7006 69.5637 25.7004H63.4923C63.3255 25.7004 63.1612 25.6609 63.0127 25.585C62.8642 25.5092 62.7359 25.3991 62.6382 25.264L56.2527 16.4404C56.118 16.2626 56.0471 16.0446 56.0514 15.8215H48.4092C49.6827 17.4682 50.9566 19.1145 52.2307 20.7605L59.792 31.2094C59.8897 31.3445 60.018 31.4546 60.1665 31.5304C60.315 31.6063 60.4794 31.6458 60.6461 31.6458Z" fill="white"/>
<path d="M48.4071 15.8242C48.4119 15.6014 48.3409 15.3835 48.2058 15.2063C46.0324 12.2021 43.8584 9.19755 41.6838 6.19272C41.6319 6.12067 41.604 6.03413 41.604 5.94535C41.604 5.85656 41.6319 5.77002 41.6838 5.69798C42.7028 4.2915 43.7208 2.88502 44.7379 1.47854C44.7769 1.42436 44.8283 1.38022 44.8877 1.34978C44.9472 1.31934 45.013 1.30347 45.0798 1.30347C45.1466 1.30347 45.2124 1.31934 45.2718 1.34978C45.3313 1.38022 45.3826 1.42436 45.4217 1.47854L52.2286 10.8843L56.0493 15.8233L48.4071 15.8242Z" fill="#00376B"/>
<path d="M48.4076 15.8242C48.4122 16.0473 48.3413 16.2655 48.2063 16.4431L41.6843 25.4557C41.6324 25.5278 41.6045 25.6143 41.6045 25.7031C41.6045 25.7919 41.6324 25.8784 41.6843 25.9505C42.7033 27.357 43.7213 28.7634 44.7384 30.1699C44.7774 30.2241 44.8288 30.2682 44.8882 30.2987C44.9476 30.3291 45.0135 30.345 45.0803 30.345C45.147 30.345 45.2129 30.3291 45.2723 30.2987C45.3318 30.2682 45.3831 30.2241 45.4222 30.1699L52.2291 20.7641C53.5027 19.1181 54.7762 17.4718 56.0497 15.8252L48.4076 15.8242Z" fill="#00376B"/>
<path d="M42.4868 0.669628L38.9841 5.5089C38.8865 5.6441 38.7582 5.75417 38.6097 5.83005C38.4612 5.90592 38.2968 5.94543 38.1301 5.94533H32.0586C31.8919 5.94537 31.7276 5.98495 31.5791 6.06081C31.4307 6.13668 31.3023 6.24667 31.2046 6.38175L24.819 15.2063C24.6887 15.3861 24.6186 15.6026 24.6186 15.8247C24.6186 16.0468 24.6887 16.2632 24.819 16.4431L31.2046 25.2667C31.3023 25.4018 31.4307 25.5117 31.5791 25.5876C31.7276 25.6635 31.8919 25.7031 32.0586 25.7031H38.1301C38.2968 25.7031 38.4611 25.7427 38.6096 25.8186C38.758 25.8944 38.8864 26.0044 38.9841 26.1395C40.1517 27.7529 41.3193 29.3663 42.4868 30.9797C42.5324 31.0426 42.5598 31.1169 42.5658 31.1944C42.5718 31.2719 42.5563 31.3495 42.521 31.4187C42.4857 31.4879 42.4319 31.546 42.3656 31.5866C42.2993 31.6271 42.2231 31.6485 42.1454 31.6485H29.2124C29.0457 31.6487 28.8812 31.6093 28.7327 31.5334C28.5842 31.4575 28.4559 31.3474 28.3584 31.2121L17.6706 16.445C17.5404 16.2651 17.4702 16.0487 17.4702 15.8266C17.4702 15.6045 17.5404 15.388 17.6706 15.2081C21.2323 10.2839 24.7949 5.36154 28.3584 0.441067C28.4561 0.305925 28.5844 0.195895 28.7329 0.120024C28.8814 0.0441525 29.0457 0.0046059 29.2124 0.00463869H42.1454C42.2223 0.00540276 42.2976 0.0271762 42.3631 0.0676066C42.4286 0.108037 42.4817 0.165589 42.5169 0.234044C42.552 0.302499 42.5678 0.379256 42.5625 0.456024C42.5572 0.532792 42.531 0.606652 42.4868 0.669628Z" fill="white"/>
<path d="M60.6461 2.03783e-08H73.579C73.6568 0.000157786 73.7329 0.0217609 73.7992 0.0624297C73.8654 0.103099 73.9191 0.161256 73.9544 0.230498C73.9897 0.29974 74.0052 0.377382 73.9992 0.454873C73.9932 0.532364 73.966 0.606698 73.9205 0.669691C72.7529 2.28309 71.5856 3.89619 70.4187 5.50896C70.3208 5.64412 70.1923 5.75415 70.0437 5.83001C69.8951 5.90588 69.7306 5.94542 69.5637 5.94539H63.4923C63.3255 5.94536 63.1612 5.9849 63.0127 6.06077C62.8642 6.13665 62.7359 6.24668 62.6382 6.38182L56.2527 15.2063C56.1179 15.3838 56.047 15.6015 56.0514 15.8243H48.4092C49.6827 14.1783 50.9566 12.5319 52.2307 10.8853L59.792 0.436429C59.8897 0.301287 60.018 0.191255 60.1665 0.115384C60.315 0.039512 60.4794 -3.27722e-05 60.6461 2.03783e-08Z" fill="white"/>
<path d="M14.5912 25.7035H21.2007C22.4736 27.4593 23.7465 29.2178 25.0194 30.9792C25.065 31.0423 25.0923 31.1167 25.0982 31.1943C25.1042 31.2718 25.0886 31.3495 25.0532 31.4188C25.0178 31.4881 24.9639 31.5462 24.8975 31.5868C24.8312 31.6274 24.7549 31.6489 24.6771 31.6489H11.7413C11.5744 31.6489 11.41 31.6093 11.2614 31.5334C11.1128 31.4576 10.9842 31.3476 10.8863 31.2125L0.200409 16.4435C0.0701369 16.2636 0 16.0472 0 15.8251C0 15.603 0.0701369 15.3866 0.200409 15.2067C3.76206 10.2824 7.32466 5.36008 10.8882 0.439602C10.9861 0.304499 11.1146 0.194511 11.2632 0.118652C11.4119 0.0427934 11.5763 0.00322017 11.7432 0.00317384H24.6733C24.7511 0.0031586 24.8274 0.024636 24.8938 0.0652358C24.9601 0.105836 25.014 0.16398 25.0494 0.233254C25.0848 0.302528 25.1004 0.380238 25.0945 0.457812C25.0885 0.535385 25.0612 0.609807 25.0157 0.672865L21.513 5.51214C21.4153 5.64728 21.287 5.75731 21.1385 5.83318C20.99 5.90905 20.8256 5.9486 20.6589 5.94856H14.5912C14.4244 5.94861 14.2599 5.98818 14.1113 6.06404C13.9627 6.1399 13.8342 6.24989 13.7363 6.38499L7.3488 15.2067C7.21853 15.3866 7.14839 15.603 7.14839 15.8251C7.14839 16.0472 7.21853 16.2636 7.3488 16.4435L13.7344 25.2671C13.8325 25.4024 13.9613 25.5126 14.1103 25.5885C14.2592 25.6643 14.4241 25.7038 14.5912 25.7035Z" fill="white"/>
</svg>
