<svg xmlns="http://www.w3.org/2000/svg" version="1.1" xmlns:xlink="http://www.w3.org/1999/xlink" xmlns:svgjs="http://svgjs.dev/svgjs" width="1000" height="623" viewBox="0 0 1000 623"><g transform="matrix(1,0,0,1,-0.6060606060606233,0.2522267206477409)"><svg viewBox="0 0 396 247" data-background-color="#ffa458" preserveAspectRatio="xMidYMid meet" height="623" width="1000" xmlns="http://www.w3.org/2000/svg" xmlns:xlink="http://www.w3.org/1999/xlink"><g id="tight-bounds" transform="matrix(1,0,0,1,0.2400000000000091,-0.09999999999999432)"><svg viewBox="0 0 395.52 247.2" height="247.2" width="395.52"><g><svg></svg></g><g><svg viewBox="0 0 395.52 247.2" height="247.2" width="395.52"><mask id="b313a5be-ff6c-44e1-bab0-0e26029858ab"><rect width="395.52" height="247.2" fill="white"></rect><g transform="matrix(1,0,0,1,144.99348148148147,37.08)" id="clone"><svg viewBox="0 0 105.53303703703705 173.04" height="173.04" width="105.53303703703705"><g><svg viewBox="0 0 105.53303703703705 173.04" height="173.04" width="105.53303703703705"><g><svg viewBox="0 0 105.53303703703705 173.04" height="173.04" width="105.53303703703705"><g><svg viewBox="0 0 105.53303703703705 173.04" height="173.04" width="105.53303703703705"><g id="SvgjsG1042"><svg viewBox="0 0 105.53303703703705 173.04" height="173.04" width="105.53303703703705" id="SvgjsSvg1041"><g><svg viewBox="0 0 105.53303703703705 173.04" height="173.04" width="105.53303703703705"><g transform="matrix(1,0,0,1,0,0)"><svg width="105.53303703703705" viewBox="-1.600000023841858 -37.900001525878906 25.700000762939453 41.5" height="173.04" data-palette-color="#ffffff"><path d="M4.9-34.9L21.1-34.9 21.1-9.05Q21.1-6.85 20.38-5.05 19.65-3.25 18.32-2 17-0.75 15.15-0.08 13.3 0.6 11.1 0.6L11.1 0.6Q7.05 0.6 4.58-1.58 2.1-3.75 1.4-7.35L1.4-7.35 5.2-8.25Q5.7-6 7.1-4.58 8.5-3.15 11.2-3.15L11.2-3.15Q13.9-3.15 15.4-4.8 16.9-6.45 16.9-9.8L16.9-9.8 16.9-31.2 4.9-31.2 4.9-34.9Z" opacity="1" transform="matrix(1,0,0,1,0,0)" fill="black" class="wordmark-text-0" id="SvgjsPath1040" stroke-width="5" stroke="black" stroke-linejoin="round"></path></svg></g></svg></g></svg></g></svg></g><g></g></svg></g></svg></g></svg></g></mask><g mask="url(#b313a5be-ff6c-44e1-bab0-0e26029858ab)"><g><path xmlns="http://www.w3.org/2000/svg" d="M163.87 28.868h86.46v137.962c0 7.828-1.281 14.944-3.843 21.348-2.597 6.404-6.262 11.83-10.994 16.278-4.697 4.448-10.336 7.863-16.919 10.247-6.582 2.419-13.787 3.629-21.615 3.629v0c-14.41 0-26.009-3.878-34.797-11.635-8.824-7.721-14.481-17.986-16.972-30.794v0l20.281-4.804c1.779 8.006 5.159 14.534 10.14 19.587 4.981 5.088 12.275 7.632 21.882 7.632v0c9.607 0 17.078-2.935 22.416-8.806 5.337-5.871 8.006-14.766 8.005-26.685v0-114.212h-64.044z" fill="#ffffff" fill-rule="nonzero" stroke="none" stroke-width="1" stroke-linecap="butt" stroke-linejoin="miter" stroke-miterlimit="10" stroke-dasharray="" stroke-dashoffset="0" font-family="none" font-weight="none" font-size="none" text-anchor="none" style="mix-blend-mode: normal" data-fill-palette-color="tertiary"></path></g></g><g transform="matrix(1,0,0,1,144.99348148148147,37.08)"><svg viewBox="0 0 105.53303703703705 173.04" height="173.04" width="105.53303703703705"><g><svg viewBox="0 0 105.53303703703705 173.04" height="173.04" width="105.53303703703705"><g><svg viewBox="0 0 105.53303703703705 173.04" height="173.04" width="105.53303703703705"><g><svg viewBox="0 0 105.53303703703705 173.04" height="173.04" width="105.53303703703705"><g id="textblocktransform"><svg viewBox="0 0 105.53303703703705 173.04" height="173.04" width="105.53303703703705" id="textblock"><g><svg viewBox="0 0 105.53303703703705 173.04" height="173.04" width="105.53303703703705"><g transform="matrix(1,0,0,1,0,0)"><svg width="105.53303703703705" viewBox="-1.600000023841858 -37.900001525878906 25.700000762939453 41.5" height="173.04" data-palette-color="#ffffff"><path d="M4.9-34.9L21.1-34.9 21.1-9.05Q21.1-6.85 20.38-5.05 19.65-3.25 18.32-2 17-0.75 15.15-0.08 13.3 0.6 11.1 0.6L11.1 0.6Q7.05 0.6 4.58-1.58 2.1-3.75 1.4-7.35L1.4-7.35 5.2-8.25Q5.7-6 7.1-4.58 8.5-3.15 11.2-3.15L11.2-3.15Q13.9-3.15 15.4-4.8 16.9-6.45 16.9-9.8L16.9-9.8 16.9-31.2 4.9-31.2 4.9-34.9Z" opacity="1" transform="matrix(1,0,0,1,0,0)" fill="#ffffff" class="wordmark-text-0" data-fill-palette-color="primary" id="text-0"></path></svg></g></svg></g></svg></g></svg></g><g></g></svg></g></svg></g></svg></g></svg></g><defs></defs></svg><rect width="395.52" height="247.2" fill="none" stroke="none" visibility="hidden"></rect></g></svg></g></svg>